<svg width="50" height="50" viewBox="0 0 50 50" fill="none" xmlns="http://www.w3.org/2000/svg">
<g clip-path="url(#clip0_27_2588)">
<path d="M48.9583 13.5562C48.6752 12.5463 48.1237 11.632 47.3625 10.9104C46.5798 10.1667 45.6204 9.63465 44.575 9.36458C40.6625 8.33333 24.9875 8.33333 24.9875 8.33333C18.4528 8.25898 11.9196 8.58598 5.425 9.3125C4.37957 9.60252 3.42201 10.1464 2.6375 10.8958C1.86667 11.6375 1.30834 12.5521 1.01667 13.5542C0.316031 17.3286 -0.0243876 21.1611 4.0601e-06 25C-0.0249959 28.8354 0.314587 32.6667 1.01667 36.4458C1.30209 37.4437 1.85834 38.3542 2.63125 39.0896C3.40417 39.825 4.36667 40.3562 5.425 40.6375C9.38959 41.6667 24.9875 41.6667 24.9875 41.6667C31.5306 41.7411 38.072 41.4141 44.575 40.6875C45.6204 40.4174 46.5798 39.8854 47.3625 39.1417C48.1333 38.4062 48.6813 37.4917 48.9563 36.4958C49.6752 32.7228 50.0248 28.8887 50 25.0479C50.0541 21.1908 49.705 17.3387 48.9583 13.5542V13.5562ZM20.0042 32.1333V17.8687L33.0458 25.0021L20.0042 32.1333Z" fill="#666775"/>
</g>
<defs>
<clipPath id="clip0_27_2588">
<rect width="50" height="50" fill="white"/>
</clipPath>
</defs>
</svg>
