<svg width="50" height="50" viewBox="0 0 50 50" fill="none" xmlns="http://www.w3.org/2000/svg">
<g clip-path="url(#clip0_27_2595)">
<path d="M42.3271 9.35833C39.1396 7.92083 35.7229 6.85833 32.15 6.25416C32.1182 6.24805 32.0852 6.25199 32.0557 6.26543C32.0263 6.27887 32.0017 6.30114 31.9854 6.32916C31.5479 7.09791 31.0604 8.1 30.7187 8.89166C26.9294 8.32549 23.0769 8.32549 19.2875 8.89166C18.9069 8.01429 18.4778 7.1588 18.0021 6.32916C17.986 6.30079 17.9616 6.27802 17.9321 6.26387C17.9027 6.24973 17.8697 6.24489 17.8375 6.25C14.2667 6.85416 10.85 7.91666 7.66041 9.35625C7.63297 9.36776 7.60971 9.38738 7.59374 9.4125C1.11041 18.9437 -0.666672 28.2396 0.206244 37.4187C0.208673 37.4412 0.215652 37.463 0.226754 37.4827C0.237857 37.5024 0.252853 37.5196 0.270828 37.5333C4.05498 40.2884 8.2757 42.3871 12.7562 43.7417C12.7875 43.7513 12.8209 43.7512 12.8521 43.7416C12.8833 43.7319 12.9109 43.7131 12.9312 43.6875C13.8937 42.3958 14.7521 41.0312 15.4854 39.5979C15.5292 39.5146 15.4875 39.4146 15.4 39.3812C14.0542 38.8744 12.7502 38.2628 11.5 37.5521C11.4775 37.5393 11.4586 37.5211 11.4449 37.4991C11.4312 37.4772 11.4232 37.4522 11.4215 37.4264C11.4199 37.4005 11.4247 37.3747 11.4354 37.3512C11.4462 37.3277 11.4627 37.3072 11.4833 37.2917C11.7458 37.0979 12.0083 36.8958 12.2583 36.6937C12.2808 36.6756 12.3079 36.664 12.3366 36.6603C12.3653 36.6566 12.3945 36.661 12.4208 36.6729C20.6021 40.3479 29.4625 40.3479 37.5479 36.6729C37.5743 36.6603 37.6038 36.6554 37.6329 36.6587C37.662 36.662 37.6896 36.6734 37.7125 36.6917C37.9625 36.8958 38.2229 37.0979 38.4875 37.2917C38.5083 37.3069 38.5251 37.3271 38.5362 37.3504C38.5473 37.3737 38.5525 37.3994 38.5513 37.4252C38.55 37.451 38.5424 37.4761 38.5291 37.4983C38.5158 37.5204 38.4972 37.5389 38.475 37.5521C37.2292 38.2687 35.9333 38.875 34.5729 39.3792C34.552 39.3867 34.533 39.3987 34.5171 39.4142C34.5012 39.4298 34.4888 39.4485 34.4807 39.4692C34.4726 39.4899 34.469 39.5121 34.4702 39.5343C34.4714 39.5565 34.4773 39.5782 34.4875 39.5979C35.2375 41.0292 36.0958 42.3917 37.0396 43.6854C37.0592 43.712 37.0865 43.7318 37.1179 43.7422C37.1492 43.7527 37.1829 43.7532 37.2146 43.7437C41.7028 42.393 45.9304 40.2933 49.7187 37.5333C49.7372 37.5204 49.7527 37.5037 49.7642 37.4843C49.7757 37.4649 49.7829 37.4432 49.7854 37.4208C50.8271 26.8083 48.0396 17.5875 42.3917 9.41666C42.3778 9.39011 42.3549 9.36941 42.3271 9.35833ZM16.7083 31.8292C14.2458 31.8292 12.2146 29.6021 12.2146 26.8708C12.2146 24.1375 14.2062 21.9125 16.7083 21.9125C19.2292 21.9125 21.2417 24.1562 21.2021 26.8708C21.2021 29.6042 19.2104 31.8292 16.7083 31.8292ZM33.3229 31.8292C30.8583 31.8292 28.8292 29.6021 28.8292 26.8708C28.8292 24.1375 30.8187 21.9125 33.3229 21.9125C35.8437 21.9125 37.8562 24.1562 37.8167 26.8708C37.8167 29.6042 35.8458 31.8292 33.3229 31.8292Z" fill="#666775"/>
</g>
<defs>
<clipPath id="clip0_27_2595">
<rect width="50" height="50" fill="white"/>
</clipPath>
</defs>
</svg>
